/* XPM */
static char *b1ea076881724a14aa6de8f6f6792b81[] = {
/* columns rows colors chars-per-pixel */
"32 32 60 1 ",
"  c #014B76",
". c #004E79",
"X c #01527D",
"o c #045681",
"O c #025984",
"+ c #025E89",
"@ c #03638E",
"# c #016792",
"$ c #026995",
"% c #036D99",
"& c #01719D",
"* c #0175A2",
"= c #0A77A0",
"- c #0279A6",
"; c #097AA3",
": c #017DAB",
"> c #0481AE",
", c #118CAF",
"< c #0384B3",
"1 c #0189B7",
"2 c #038CBB",
"3 c #118FB3",
"4 c #0290BF",
"5 c #1091B6",
"6 c #1295BB",
"7 c #1198BE",
"8 c #0394C3",
"9 c #0498C7",
"0 c #0C9CC5",
"q c #049CCB",
"w c #099FC9",
"e c #119AC2",
"r c #05A3CD",
"t c #09A4CE",
"y c #11A2C9",
"u c #05A5D1",
"i c #09A7D3",
"p c #06A9D5",
"a c #08AAD6",
"s c #05AEDB",
"d c #09ADD9",
"f c #19ABD6",
"g c #06B0DE",
"h c #0AB1DE",
"j c #05B4E3",
"k c #08B5E5",
"l c #06B7E8",
"z c #04BAEC",
"x c #0CBBED",
"c c #14BCEE",
"v c #19BCED",
"b c #16BFF1",
"n c #19BFF1",
"m c #04C0F2",
"M c #0CC0F3",
"N c #17C1F4",
"B c #19C2F4",
"V c #1AC7F9",
"C c #1BCBFD",
"Z c None",
/* pixels */
"ZZZZZZZZZZZZZ2224489qZZZZZZZZZZZ",
"ZZZZZZZZZZ>>>11244889qqqZZZZZZZZ",
"ZZZZZZZZ-::>>12ZZZZZZZZqquZZZZZZ",
"ZZZZZZ***-:>ZZZZZZZZZZZZZZuZZZZZ",
"ZZZZZ&&&*-ZZZZZZZZZZZZZZZZZZZZZZ",
"ZZZZ%$%&ZZZZZZZZZZZZZZZZZZZZZZZZ",
"ZZZ$#$%ZZZZZZZZZZZZZZZZZZZZZZZZZ",
"ZZZ@#$ZZZZZlkkxccZZZoXoXXoXoZZZZ",
"ZZ++@ZZZZkjjjkzzxxZ XXXXXXX.XXZZ",
"Z+O+@ZZZjggjjjlzzzb% XXXXXXXXXXZ",
"ZOO@ZZZZsjgZZZZZllm8 XZZZZZoX.Xo",
"ZXOZZvZapsdZZZZZjjmq XZZZZZZXXXX",
"oXOZBvZpppdZZZZZZZq%.XZZZZZZo.XX",
"XX.ZcZZiupppZZZZZZZ.XXZZZZZZXXXo",
"XXZCcZZZruuupiZZZZOXXXZZZZZoXXXZ",
"XXZBvZZZZrruuuuuZZXXXoZZZZX.XXXZ",
"X.ZbnZZZZZrrruuuup+.XXXXXXXX.oZZ",
"X.ZbcZZZZZZZZtrtup8XXX.XX.XXZZZZ",
"o.ZbcZZZZZZZZZZrrrp$ oZZZZZZZZZZ",
"o.ZbcZZZZZZZZZZZwrp&.ZZZZZZZZZZZ",
"Z.ZNcn3667ZZZZZZ0wu$.ZZZZZZZZZZZ",
"ZXZVcn5536ZZZZZ0700OXZZZZZZZZZZZ",
"Zo Zcbf,356666777y;.oZZZZZZZZZZZ",
"ZZ.ZbcnZ,33355667=.XZZZZZZZZZZZZ",
"ZZoZCvcBZZ333366ZXXoZZZZZZZZZZZZ",
"ZZZXZBccBZZZZZZZZZZZZZZZZZZZZZZZ",
"ZZZZZZvcxxZZZZZZZZZZZZZZZZZZZZZZ",
"ZZZZZZncxzlZZZZZZZZZZZZZZZZZZZZZ",
"ZZZZZZZczzjghZZZZZZZZZZZZ6ZZZZZZ",
"ZZZZZZZZZjjgsaauZZZZZZ666ZZZZZZZ",
"ZZZZZZZZZZhsppuurw0e766ZZZZZZZZZ",
"ZZZZZZZZZZZZZiir00ee7ZZZZZZZZZZZ"
};
