/* XPM */
static char *a90d1ddfab5841bd9800500d837ebf49[] = {
/* columns rows colors chars-per-pixel */
"16 16 95 2 ",
"   c #00446E",
".  c #004570",
"X  c #004670",
"o  c #004772",
"O  c #004974",
"+  c #024B76",
"@  c #004C77",
"#  c #004D79",
"$  c #004F7A",
"%  c #014F7A",
"&  c #00517C",
"*  c #00517D",
"=  c #01517D",
"-  c #00527D",
";  c #01527D",
":  c #00527E",
">  c #01527E",
",  c #00537E",
"<  c #02537E",
"1  c #03537F",
"2  c #005680",
"3  c #025984",
"4  c #025A85",
"5  c #015E89",
"6  c #036590",
"7  c #016793",
"8  c #026893",
"9  c #026B97",
"0  c #026D99",
"q  c #076C98",
"w  c #00719D",
"e  c #0176A3",
"r  c #0B76A3",
"t  c #0179A6",
"y  c #057EA8",
"u  c #027FAD",
"i  c #0381AF",
"p  c #108BAE",
"a  c #0387B2",
"s  c #0386B5",
"d  c #0485B4",
"f  c #0F8FB7",
"g  c #028BBA",
"h  c #028FBF",
"j  c #098AB9",
"k  c #1190B5",
"l  c #1091B6",
"z  c #1192B7",
"x  c #1193B8",
"c  c #1194BA",
"v  c #1297BD",
"b  c #1397BD",
"n  c #0395C4",
"m  c #0F9BC3",
"M  c #0399C9",
"N  c #059DCD",
"B  c #089FC9",
"V  c #119BCA",
"C  c #119CCB",
"Z  c #05A4CF",
"A  c #06A4CE",
"S  c #06A4CF",
"D  c #0DA6CE",
"F  c #15A2CC",
"G  c #04A5D0",
"H  c #05A5D0",
"J  c #05A6D2",
"K  c #05A7D3",
"L  c #07A7D3",
"P  c #04A6D7",
"I  c #05A8D3",
"U  c #05A9D4",
"Y  c #07AAD6",
"T  c #08AAD6",
"R  c #05ADDB",
"E  c #08ACD8",
"W  c #13AEDF",
"Q  c #05B0DF",
"!  c #14AFE0",
"~  c #05B1E0",
"^  c #05B3E2",
"/  c #06B4E3",
"(  c #08B3E3",
")  c #05B7E8",
"_  c #06B8E9",
"`  c #04BBEB",
"'  c #09BDEF",
"]  c #16B5E6",
"[  c #15BEF0",
"{  c #09C3F5",
"}  c #17C0F3",
"|  c #17C1F3",
" . c #18C4F6",
".. c #18C8FB",
"X. c None",
/* pixels */
"X.X.X.X.X.i s g h n M X.X.X.X.X.",
"X.X.X.X.t u s X.X.X.X.X.N X.X.X.",
"X.X.0 w e X.X.X.X.X.X.X.X.X.X.X.",
"X.7 7 X.X.X.( X.X.X.X.X.X.X.X.X.",
"X.5 X.X.Q ^ / _ { j @ , = = = X.",
"3 2 X.X.R X.X.X.` P % X.X.X.= = ",
"% q X.X.K T X.X.X.9 = X.X.X.= , ",
"o V X.X.S K K K X.O = X.X., = , ",
"o ! X.X.X.X.S S P 8 % = = = = X.",
"  W | X.X.X.X.X.U a + X.X.X.X.X.",
"  C  .l c X.X.X.D i X.X.X.X.X.X.",
"X.r ..F p l x b l 4 X.X.X.X.X.X.",
"X.X.] | X.X.l X.X.X.X.X.X.X.X.X.",
"X.X.X.[ ' X.X.X.X.X.X.X.X.X.X.X.",
"X.X.X.X.) ^ E X.X.X.X.X.X.X.X.X.",
"X.X.X.X.X.X.T A A m b X.X.X.X.X."
};
