/* XPM */
static char *_158a34d41104b68bed860c1810e241e[] = {
/* columns rows colors chars-per-pixel */
"64 64 75 1 ",
"  c #004B76",
". c #014E7A",
"X c #00517C",
"o c #0A537C",
"O c #045681",
"+ c #085680",
"@ c #035A84",
"# c #0A5A84",
"$ c #015E89",
"% c #095F89",
"& c #03628D",
"* c #026691",
"= c #016A95",
"- c #086A95",
"; c #016D9A",
": c #0B6E9A",
"> c #02729E",
", c #0175A2",
"< c #0874A1",
"1 c #0179A6",
"2 c #0A7AA3",
"3 c #017DAB",
"4 c #097FAB",
"5 c #0381AF",
"6 c #0B83AD",
"7 c #0D88AF",
"8 c #138CAF",
"9 c #0384B3",
"0 c #0A85B3",
"q c #0389B6",
"w c #0F8FB3",
"e c #028DBB",
"r c #098DBB",
"t c #118EB2",
"y c #0F90B4",
"u c #0290BE",
"i c #0B93BE",
"p c #1191B6",
"a c #1295BA",
"s c #1498BE",
"d c #0293C3",
"f c #079FC7",
"g c #0D9CC4",
"h c #0097C8",
"j c #039CCB",
"k c #099ECB",
"l c #129AC1",
"z c #04A2CD",
"x c #0AA3CC",
"c c #05A5D1",
"v c #0AA4D2",
"b c #06A9D5",
"n c #0AAAD6",
"m c #05ADDA",
"M c #0AADD9",
"N c #10A6D0",
"B c #06B0DE",
"V c #09B0DD",
"C c #04B4E3",
"Z c #0AB5E4",
"A c #05B8E7",
"S c #05B7E9",
"D c #0CB7E8",
"F c #04B9EB",
"G c #0CBCED",
"H c #15BDEE",
"J c #1BBDED",
"K c #06BFF2",
"L c #0FBEF0",
"P c #23BFEE",
"I c #06C1F2",
"U c #0AC1F3",
"Y c #14C2F3",
"T c #1CC2F3",
"R c None",
/* pixels */
"RRRRRRRRRRRRRRRRRRRRRRRRRRRRrueuuudddhkRRRRRRRRRRRRRRRRRRRRRRRRR",
"RRRRRRRRRRRRRRRRRRRRRRRRrqqqeqeeuuudddhhhjkRRRRRRRRRRRRRRRRRRRRR",
"RRRRRRRRRRRRRRRRRRRRR05999qqqeeeeeuuddddhhhjjkRRRRRRRRRRRRRRRRRR",
"RRRRRRRRRRRRRRRRRR55333599q9qqqeeeuuudddhhhhhjjjRRRRRRRRRRRRRRRR",
"RRRRRRRRRRRRRRRR41113555399qqqrrRRRRRRRRRRRkjjjjjcRRRRRRRRRRRRRR",
"RRRRRRRRRRRRRRR1,1133333390rRRRRRRRRRRRRRRRRRRRkjjjcRRRRRRRRRRRR",
"RRRRRRRRRRRRR1,,111113350RRRRRRRRRRRRRRRRRRRRRRRRRvjcvRRRRRRRRRR",
"RRRRRRRRRRRR<>>,,11113RRRRRRRRRRRRRRRRRRRRRRRRRRRRRRvcvRRRRRRRRR",
"RRRRRRRRRRR>;>,,,,,16RRRRRRRRRRRRRRRRRRRRRRRRRRRRRRRRRcvRRRRRRRR",
"RRRRRRRRRR;;;>;>,,1RRRRRRRRRRRRRRRRRRRRRRRRRRRRRRRRRRRRRnRRRRRRR",
"RRRRRRRRR;=;;;>;,RRRRRRRRRRRRRRRRRRRRRRRRRRRRRRRRRRRRRRRRRRRRRRR",
"RRRRRRRR===;;;;,RRRRRRRRRRRRRRRRRRRRRRRRRRRRRRRRRRRRRRRRRRRRRRRR",
"RRRRRRR-*===;;>RRRRRRRRRRRRRRRRRRRRRRRRRRRRRRRRRRRRRRRRRRRRRRRRR",
"RRRRRR-&**===>RRRRRRRRRRRRRRRRRRRRRRRRRRRRRRRRRRRRRRRRRRRRRRRRRR",
"RRRRR-&&**=*:RRRRRRRRRRRGDDDGGLJRRRRRRRRRRRRRRRRRRRRRRRRRRRRRRRR",
"RRRRR&&&&**-RRRRRRRRRDDCCCmZFLGKLJPRRRROXXXXXXXXXXXXXXXOO%RRRRRR",
"RRRR&$&&&&-RRRRRRRRCCCSCCVVCFFKGGGGHRRRXXXXXXXXXXXXXXXX.XXX#RRRR",
"RRRR$$$$&&RRRRRRRZCCCCCCBBCDFFFFKGGGHRoXXXXXXX.XXXXXXXXXXXXX+RRR",
"RRR$@$$$$RRRRPRRZBZCCBBCCBSCFSSFFFFKLY: XXXXXXXXXXXXXXXXXXXXX#RR",
"RRR@@@@$-RRRJRRRVBBBBBBCAARRSADSFFFFFKk.XXXXXXOXXOXOXXXXXX.XXXRR",
"RR$@@@$$RRRJJRRVBCBCBCBRRRRRRRRASFFFFFK& XXXORRRRRRRRR#XXXXXX.OR",
"RRXO@@@&RRRJRRRMbmBBBmRRRRRRRRRRSCCSFFK< XXX+RRRRRRRRRRRXXXXXXXR",
"RRO@O@$RRRJJRRRnmmmBmVRRRRRRRRRRACSCACK4 XXX#RRRRRRRRRRRXXXXXXXR",
"R#XXOO%RRJHRRRnbbbmbmRRRRRRRRRRRASCCCCK2 XXXRRRRRRRRRRRR#XXXXXXo",
"RXXOOORRRHJRRRbbbbbMnRRRRRRRRRRRRCCCCmm: XXXRRRRRRRRRRRRRXXXXXXo",
"RXXXX#RRJHJRRRncbcbbbnRRRRRRRRRRRRRRR#XXXXXXRRRRRRRRRRRR#XXXXXXR",
"RXXXX%RRJHRRRRbcccbbbbMRRRRRRRRRRRRRRO.XXXXORRRRRRRRRRRR#XXXXXXR",
"#XXXXRRJHHRRRRRcccccbbbmRRRRRRRRRRRRRXXXXXXXRRRRRRRRRRRRXXXXXXXR",
"XXXXXRRJLJRRRRRvccccccccbnMRRRRRRRRRRXXXXX.ORRRRRRRRRRR#XXXXXX#R",
"XXX.#RRHLJRRRRRRczcccccccbccnRRRRRRRRXXXXXX#RRRRRRRRRRRX.XXXXXRR",
"XXXX%RJHJJRRRRRRRxzzccccccccccbNRRRR#XXXXXXRRRRRRRRRR#XXXXXXX+RR",
"XXXXRRJHHTRRRRRRRRxzzzzzcccccccccMRR#XXXXXXO++O++O#+X.XXXXXXXRRR",
"XXXORRHJHPRRRRRRRRRRxzzzzzcccczccbbR.XXXXXXX.XX.XXX.XXXXXXXXRRRR",
"XX.XRRHHHPRRRRRRRRRRRRxzzzzcczcccccm6 XXXXXXXXXXXXXXXXXX.XXRRRRR",
"XXXORRHHLHRRRRRRRRRRRRRRRxzcczzcccccm> XXXXXXXXX.XXXXXX.X#RRRRRR",
"XXXORRHHHJRRRRRRRRRRRRRRRRRNxzzzcxccbcO.XXXX.X.XXXXXXXX#RRRRRRRR",
"+XXORRHHHHRRRRRRRRRRRRRRRRRRRNzzzzzzcb> XX#+o#X#+O##RRRRRRRRRRRR",
"#XXORRHHLJRRRRRRRRRRRRRRRRRRRRRxzzzzzbq XXRRRRRRRRRRRRRRRRRRRRRR",
"RXXXRRHHHHRRRRRRRRRRRRRRRRRRRRRNzzzzzcr.XXRRRRRRRRRRRRRRRRRRRRRR",
"RXXORRHHHHJRRssssssRRRRRRRRRRRRRfffzzcr.XXRRRRRRRRRRRRRRRRRRRRRR",
"RO.XRRHHHHJRRaarassRRRRRRRRRRRRRgfxffcq XXRRRRRRRRRRRRRRRRRRRRRR",
"R#XXRRJHHHHRRppaaaasRRRRRRRRRRRRgggffc6 .oRRRRRRRRRRRRRRRRRRRRRR",
"RRXX#RJGHHHTRppppapaRRRRRRRRRRRgsggxgx=.X%RRRRRRRRRRRRRRRRRRRRRR",
"RR+XORJJHHHYRwpppppaaRRRRRRRRRllgggggsX.XRRRRRRRRRRRRRRRRRRRRRRR",
"RRRXORRHHHHHP8wtwappprasRRRssssssssix>.XXRRRRRRRRRRRRRRRRRRRRRRR",
"RRRXXRRJHHHHTR8twwwppppppaasaasasisg7.X.oRRRRRRRRRRRRRRRRRRRRRRR",
"RRRRX#RJHHHHHTRp8wwwwwpaparaaassssg7XXXXXRRRRRRRRRRRRRRRRRRRRRRR",
"RRRRXXRRHHHHHJRRt88wwwypppppraaaas2XXXXX@RRRRRRRRRRRRRRRRRRRRRRR",
"RRRRRX#RJJHHHHJRRRt8t888ppppppaalR.XXXXX+RRRRRRRRRRRRRRRRRRRRRRR",
"RRRRR#XRRJHHHHHJRRRRRa8aptpppsRRRRRRRRRRRRRRRRRRRRRRRRRRRRRRRRRR",
"RRRRRRX#RJHHHHHHJRRRRRRRRRRRRRRRRRRRRRRRRRRRRRRRRRRRRRRRRRRRRRRR",
"RRRRRRR#RRJHHHHHHJRRRRRRRRRRRRRRRRRRRRRRRRRRRRRRRRRRRRRRRRRRRRRR",
"RRRRRRRR#RRJHHHHGLHRRRRRRRRRRRRRRRRRRRRRRRRRRRRRRRRRRRRRRRRRRRRR",
"RRRRRRRR%RRRHHHHLGDGRRRRRRRRRRRRRRRRRRRRRRRRRRRRRRRRRRRRRRRRRRRR",
"RRRRRRRRRRRRJJHLKLFFGRRRRRRRRRRRRRRRRRRRRRRRRRRRRRRRRRRRRRRRRRRR",
"RRRRRRRRRRRRRTLGGKFSCCZRRRRRRRRRRRRRRRRRRRRRRRRRRRRRRsRRRRRRRRRR",
"RRRRRRRRRRRRRRJGFFSACCCCZRRRRRRRRRRRRRRRRRRRRRRRRRRssRRRRRRRRRRR",
"RRRRRRRRRRRRRRRHSFSFCCCBMBMRRRRRRRRRRRRRRRRRRRRRRsaaRRRRRRRRRRRR",
"RRRRRRRRRRRRRRRRRDCCCBBBVmmnMMRRRRRRRRRRRRRRRRsssasRRRRRRRRRRRRR",
"RRRRRRRRRRRRRRRRRRDZCCBmmmbnbcccNvRRRRRRRllssaaaaRRRRRRRRRRRRRRR",
"RRRRRRRRRRRRRRRRRRRRVBmmbbnbccczzzzxggglssaaaaaRRRRRRRRRRRRRRRRR",
"RRRRRRRRRRRRRRRRRRRRRRVmmnbcccczzxkgggllsssaaRRRRRRRRRRRRRRRRRRR",
"RRRRRRRRRRRRRRRRRRRRRRRRRnbccczzfffggllssssRRRRRRRRRRRRRRRRRRRRR",
"RRRRRRRRRRRRRRRRRRRRRRRRRRRRvxxkffgggllRRRRRRRRRRRRRRRRRRRRRRRRR"
};
